<svg version="1.1" id="Layer_1" xmlns="http://www.w3.org/2000/svg" xmlns:xlink="http://www.w3.org/1999/xlink" x="0px" y="0px"
	 width="100%" viewBox="0 0 1024 1024" enable-background="new 0 0 1024 1024" xml:space="preserve">
<path fill="#000000" opacity="1.000000" stroke="none" 
	d="
M587.516968,249.585617 
	C610.800293,317.267853 633.961243,384.574036 657.023804,451.594330 
	C654.920227,453.629913 652.995361,453.186249 651.236450,453.188782 
	C634.573608,453.212921 617.909485,453.064606 601.248535,453.236389 
	C596.757996,453.282715 594.675476,451.818390 595.094421,447.224274 
	C595.229858,445.738525 595.051819,444.226746 595.079834,442.728058 
	C595.137268,439.658966 593.812439,437.769043 590.601318,438.315704 
	C583.910461,439.454651 581.173706,436.116638 578.716248,430.235077 
	C572.040649,414.258148 561.781128,400.834961 547.224182,391.072205 
	C544.814331,389.456024 543.684082,387.299530 542.807312,384.703369 
	C536.521545,366.091095 530.018982,347.550354 523.926819,328.875488 
	C522.324646,323.964233 519.973267,321.999969 514.660522,322.247833 
	C502.254089,322.826721 505.087219,320.655273 501.060944,332.162811 
	C494.959015,349.602722 488.968964,367.081970 482.995544,384.566406 
	C482.096222,387.198761 480.681458,389.185364 478.321411,390.762207 
	C462.721619,401.185059 452.011322,415.625946 444.916229,432.755249 
	C443.143829,437.034271 440.947876,438.982300 436.428955,438.250427 
	C431.435150,437.441650 429.294647,439.498077 429.859375,444.600769 
	C430.057220,446.388062 429.537903,448.243652 429.493469,450.071655 
	C429.441437,452.210602 428.295258,453.040985 426.327576,453.039612 
	C408.000732,453.026825 389.673828,453.014740 371.347107,452.961914 
	C370.743622,452.960175 370.141357,452.526886 369.665955,452.343842 
	C368.724091,450.601471 369.644257,449.233215 370.108368,447.879883 
	C393.707886,379.069550 417.385010,310.285675 440.840820,241.426453 
	C442.457672,236.679840 444.898010,235.574844 449.509644,235.591156 
	C491.666443,235.740112 533.824524,235.778809 575.980530,235.546173 
	C581.215210,235.517288 584.105652,236.877411 585.113770,242.081970 
	C585.584839,244.513855 586.616760,246.837082 587.516968,249.585617 
M582.060181,317.312347 
	C576.379700,300.954346 570.563782,284.641205 565.114258,268.206635 
	C563.757812,264.115814 561.645020,262.957123 557.525696,262.980164 
	C528.032104,263.145020 498.536133,263.210632 469.043579,262.976166 
	C463.923889,262.935455 461.798828,264.805023 460.219421,269.447052 
	C444.671814,315.143616 428.911133,360.767670 413.223297,406.416534 
	C411.240143,412.187256 409.328156,417.982513 407.405396,423.700439 
	C408.454285,424.304230 408.868958,424.750092 409.286591,424.752869 
	C418.609985,424.815094 427.933716,424.828064 437.257385,424.851440 
	C439.775421,424.857727 440.608582,423.055115 441.291260,421.094910 
	C443.098145,415.906891 444.914246,410.722046 446.704468,405.528290 
	C458.748047,370.588287 470.803009,335.652130 482.795288,300.694550 
	C483.842712,297.641327 484.909973,295.521729 488.900787,295.578888 
	C504.894562,295.807953 520.894226,295.753937 536.890015,295.614807 
	C540.172607,295.586304 541.701904,296.966522 542.652527,299.866089 
	C544.467163,305.401062 546.501343,310.863678 548.395691,316.373047 
	C560.303101,351.004028 572.251709,385.621094 584.019836,420.299408 
	C585.354797,424.233429 587.225769,425.918884 591.503662,425.714844 
	C598.319580,425.389771 605.163574,425.682983 611.995422,425.654053 
	C619.082153,425.624023 619.368958,425.248840 617.078125,418.603546 
	C605.520813,385.077850 593.934082,351.562317 582.060181,317.312347 
z"/>
<path fill="#000000" opacity="1.000000" stroke="none" 
	d="
M689.610718,550.484070 
	C700.170227,581.356873 710.584534,611.866577 720.865112,641.984619 
	C718.744385,644.472595 716.616760,643.962708 714.700378,643.964233 
	C688.879883,643.985291 663.058594,643.848206 637.239624,644.041931 
	C632.544128,644.077148 630.438904,642.291748 629.006653,638.038269 
	C620.986816,614.221924 612.619873,590.521912 604.694885,566.674683 
	C603.052185,561.731628 600.733154,559.778503 595.433228,560.130798 
	C588.135925,560.615967 580.781860,560.271240 573.452393,560.230103 
	C571.679443,560.220154 569.790466,560.487549 568.458435,559.322815 
	C567.850464,557.671631 568.759827,556.799011 569.419617,555.883118 
	C573.622437,550.049255 577.295959,543.907593 579.904907,537.196533 
	C581.020325,534.327271 582.819885,533.033508 585.919067,533.047302 
	C596.413330,533.094116 606.909424,533.084045 617.402161,532.924255 
	C621.223938,532.866089 622.447998,535.085327 623.508484,538.208557 
	C631.640259,562.157532 640.036011,586.018127 647.985657,610.026733 
	C649.684570,615.157532 652.050171,617.150208 657.542847,616.819763 
	C665.808350,616.322510 674.125977,616.690308 682.220703,616.690308 
	C683.546387,613.837708 682.140015,611.870605 681.488098,609.952820 
	C670.132385,576.545410 658.628296,543.188354 647.319763,509.765137 
	C645.979980,505.805328 643.935303,504.254089 639.737366,504.320465 
	C626.747070,504.525848 613.749695,504.270813 600.758850,504.459503 
	C596.799011,504.516998 595.427795,503.140656 595.595032,499.244537 
	C595.837830,493.590912 595.756470,487.917511 595.634705,482.256409 
	C595.569458,479.225372 596.411499,477.648651 599.823425,477.662842 
	C620.312866,477.748016 640.803284,477.755768 661.292419,477.635040 
	C664.906372,477.613770 665.661011,479.940674 666.535034,482.519501 
	C674.172729,505.055298 681.820618,527.587585 689.610718,550.484070 
z"/>
<path fill="#000000" opacity="1.000000" stroke="none" 
	d="
M326.770569,577.847900 
	C337.512299,546.264099 348.235596,515.090759 358.684326,483.825531 
	C360.264099,479.098419 362.513977,477.443359 367.574127,477.529053 
	C386.066284,477.842163 404.570221,477.811157 423.063049,477.507019 
	C428.249481,477.421692 429.796875,479.142548 429.428131,484.097351 
	C429.045776,489.234985 429.166809,494.430786 429.397064,499.586426 
	C429.565247,503.352234 428.042358,504.466370 424.427124,504.425812 
	C411.263824,504.278137 398.097473,504.423920 384.933014,504.341858 
	C382.125519,504.324371 380.283783,504.951172 379.278046,507.932251 
	C367.305969,543.419067 355.234894,578.872437 343.206146,614.340149 
	C343.055542,614.784363 343.119049,615.301086 343.014191,616.691895 
	C349.360901,616.691895 355.592743,616.791992 361.820374,616.672424 
	C378.324524,616.355713 374.293213,619.459839 379.778778,603.760132 
	C387.302032,582.228333 394.687775,560.646851 401.893585,539.007141 
	C403.385254,534.527527 405.545837,532.622375 410.452148,532.823669 
	C419.768707,533.205750 429.113556,533.041321 438.443176,532.889587 
	C441.920319,532.833008 443.983490,534.059204 445.283478,537.343323 
	C448.350983,545.092529 452.983002,552.008789 457.635071,558.718506 
	C456.265869,560.924194 454.419464,560.209290 452.895477,560.224060 
	C444.897247,560.301575 436.887177,560.504395 428.903198,560.157288 
	C424.599152,559.970093 422.740082,561.610779 421.421265,565.556885 
	C413.347260,589.716064 404.930420,613.760864 396.916229,637.939453 
	C395.394348,642.530823 393.106750,644.106750 388.330505,644.072449 
	C362.668610,643.887878 337.004547,644.013245 311.341217,644.008240 
	C309.380066,644.007874 307.325500,644.360657 304.750458,642.426697 
	C311.990875,621.213745 319.326813,599.721069 326.770569,577.847900 
z"/>
<path fill="#000000" opacity="1.000000" stroke="none" 
	d="
M533.674438,433.999939 
	C533.674194,419.875000 533.674194,406.250061 533.674194,392.633362 
	C537.275208,392.057434 539.336548,394.008057 541.446655,395.457794 
	C557.504944,406.490326 568.305176,421.631439 575.106018,439.669647 
	C576.739014,444.001068 578.673218,446.547913 583.656128,445.722626 
	C587.095398,445.152985 588.483276,446.921051 588.308960,450.334076 
	C588.147705,453.491608 588.251343,456.663727 588.272156,459.829193 
	C588.290283,462.573181 588.480469,465.331360 584.499329,465.477722 
	C583.145508,465.527527 582.170532,466.753082 582.660278,467.915863 
	C583.754395,470.513367 581.706299,474.422424 585.497498,475.767731 
	C587.937866,476.633698 588.365906,478.156281 588.326355,480.329742 
	C588.262817,483.827545 588.295593,487.327118 588.292053,490.825958 
	C588.289917,492.916504 587.903442,494.387024 585.545044,495.482391 
	C581.300537,497.453705 584.101746,502.118164 581.532654,505.644775 
	C587.929932,505.631195 588.833069,509.048401 588.271362,513.538269 
	C588.127686,514.686462 588.253479,515.868103 588.252197,517.034424 
	C588.242981,525.345337 588.254517,525.520386 579.932434,526.080444 
	C576.621338,526.303345 575.908203,528.424683 574.950867,530.749268 
	C568.483765,546.452881 558.922119,559.865479 545.421509,570.307251 
	C542.193604,572.803772 538.932434,575.341553 533.674622,576.948975 
	C533.674622,528.917358 533.674622,481.708649 533.674438,433.999939 
M552.180420,476.546661 
	C547.501587,478.048920 545.603638,481.397980 546.133667,486.107422 
	C546.549622,489.803131 548.722107,492.138885 552.426086,492.843109 
	C557.606628,493.828156 562.087463,490.803406 562.701782,485.981537 
	C563.433960,480.234650 559.718811,476.592773 552.180420,476.546661 
z"/>
<path fill="#000000" opacity="1.000000" stroke="none" 
	d="
M490.406647,445.000122 
	C490.407104,488.921204 490.407104,532.342285 490.407104,575.849854 
	C487.276520,576.690796 485.534851,574.821838 483.709564,573.654175 
	C468.274841,563.780396 458.114349,549.559021 451.086700,532.992188 
	C449.127167,528.372864 447.128479,525.145264 441.454163,525.937256 
	C438.372223,526.367432 436.891510,524.617065 436.971619,521.461060 
	C437.064545,517.799316 436.972626,514.133301 437.032257,510.470215 
	C437.059448,508.800385 437.243378,507.284668 439.077118,506.288940 
	C443.430695,503.924896 443.571625,497.875488 439.233582,495.367767 
	C437.486511,494.357880 436.865601,493.190765 436.857086,491.430450 
	C436.837738,487.434082 436.844330,483.437317 436.881134,479.441101 
	C436.892029,478.259125 437.013092,476.770508 438.246429,476.450989 
	C442.869019,475.253418 441.586853,471.361084 442.147766,468.329315 
	C442.370178,467.126953 442.145294,465.698944 440.703888,465.575928 
	C436.153473,465.187531 436.817261,461.893463 436.775787,458.946106 
	C436.754700,457.447418 436.757477,455.948303 436.755371,454.449402 
	C436.744385,446.565399 436.731079,446.410553 444.322937,445.728180 
	C447.439453,445.448090 448.000061,443.315430 448.817413,441.170532 
	C453.734772,428.266632 460.561371,416.536469 470.203125,406.567535 
	C475.756561,400.825653 481.777374,395.671600 490.406189,391.490662 
	C490.406189,409.826721 490.406189,427.163422 490.406647,445.000122 
M476.639099,479.846222 
	C476.272522,475.533173 475.679413,471.276794 473.736237,467.324615 
	C471.776855,463.339417 468.918304,460.373444 464.231201,460.447296 
	C459.567047,460.520813 456.533020,463.388580 454.957886,467.579041 
	C450.895660,478.386322 450.985107,489.364960 454.563782,500.225830 
	C456.070770,504.799316 458.968811,508.711975 464.492767,508.606415 
	C469.739685,508.506195 472.267792,504.613068 474.045959,500.335999 
	C476.650299,494.071777 476.748688,487.413452 476.639099,479.846222 
M465.864624,534.616577 
	C469.146973,540.259766 472.543030,545.813110 478.149017,549.774109 
	C475.825500,539.002502 466.474335,531.801147 463.654938,521.315002 
	C463.362335,520.226685 461.742157,520.214783 460.427002,521.429260 
	C460.808411,526.021240 463.693939,529.793823 465.864624,534.616577 
M466.385956,433.874268 
	C464.039307,438.479401 460.980377,442.829620 460.517059,448.607086 
	C463.710754,447.433228 463.767731,447.459045 464.583344,445.659790 
	C468.097229,437.907745 471.794952,430.285828 478.386017,424.544006 
	C479.530121,423.547363 479.994781,422.301117 478.813873,421.088196 
	C477.514435,419.753571 476.330048,420.683319 475.404297,421.679810 
	C472.111725,425.223724 469.324097,429.155029 466.385956,433.874268 
z"/>
<path fill="#000000" opacity="1.000000" stroke="none" 
	d="
M526.235474,492.999969 
	C526.198792,500.660156 526.039307,507.822418 526.162231,514.979858 
	C526.268921,521.192261 524.569519,526.836426 521.372986,532.048340 
	C519.198730,535.593323 516.997803,539.075684 515.359253,542.945007 
	C513.769287,546.699341 507.007538,549.734436 503.083801,548.998230 
	C499.200745,548.269653 498.759186,545.352905 498.715179,542.196411 
	C498.441223,522.554504 498.087555,502.912994 497.948975,483.270050 
	C497.866760,471.621124 497.864929,459.966003 498.707062,448.329285 
	C499.100433,442.893494 500.461578,437.788116 503.738983,433.414307 
	C507.420258,428.501556 513.549377,428.459198 517.252625,433.234985 
	C522.672791,440.224884 526.206299,447.859863 526.069336,457.033386 
	C525.892761,468.852112 526.159485,480.677460 526.235474,492.999969 
M512.428650,483.589996 
	C507.168457,485.342346 505.156006,488.573303 507.319458,492.053375 
	C508.680695,494.243011 510.597290,495.867828 513.458801,495.161011 
	C516.100830,494.508392 517.849976,492.793884 518.114563,490.026611 
	C518.458496,486.428894 516.318115,484.609833 512.428650,483.589996 
z"/>
<path fill="#000000" opacity="1.000000" stroke="none" 
	d="
M280.633850,741.722534 
	C285.620361,730.415894 290.590118,719.513916 295.226227,708.471863 
	C296.738342,704.870483 298.741913,703.397400 302.713104,703.570312 
	C317.092621,704.196594 313.474670,701.125977 319.595978,714.682312 
	C327.536163,732.266785 335.242188,749.957092 343.013824,767.617310 
	C343.664276,769.095337 344.759979,770.516418 344.020325,772.931274 
	C338.863770,773.636292 333.448181,773.436218 328.064392,773.061340 
	C325.880737,772.909302 325.611023,770.598328 324.909790,768.956726 
	C319.811798,757.021912 322.457977,759.468140 310.342621,759.256042 
	C305.351227,759.168640 300.353210,759.379028 295.364868,759.230286 
	C292.315033,759.139343 289.969177,759.974854 289.362885,763.140137 
	C287.636963,772.150879 282.005219,774.841980 273.547546,773.335571 
	C271.805878,773.025391 269.879333,773.746338 267.811249,771.989624 
	C271.120697,761.770264 276.473846,752.190308 280.633850,741.722534 
M307.543579,726.480591 
	C306.990417,725.776672 307.127808,724.440491 305.333893,724.488098 
	C302.737976,730.884155 300.092987,737.401184 297.198120,744.533813 
	C303.281403,745.402039 308.457123,745.142517 314.515930,744.725098 
	C312.100037,738.446045 309.921234,732.783203 307.543579,726.480591 
z"/>
<path fill="#000000" opacity="1.000000" stroke="none" 
	d="
M499.626099,765.917053 
	C499.587250,758.602173 499.846252,751.760498 499.439178,744.958740 
	C498.925568,736.376831 494.472687,732.866089 486.817810,734.346191 
	C481.680237,735.339600 478.575623,739.809570 478.432404,746.925415 
	C478.288452,754.080017 478.262390,761.243408 478.454224,768.395691 
	C478.552856,772.072815 477.178711,773.291748 473.525665,773.353821 
	C462.126434,773.547302 462.109863,773.674377 461.516266,762.359192 
	C460.565216,744.229736 461.078125,726.086060 461.135101,707.949768 
	C461.160492,699.863892 461.431519,699.864685 469.251221,699.826050 
	C478.852631,699.778625 478.778839,699.780212 478.980347,709.628235 
	C479.067505,713.887512 478.526184,718.198608 479.552917,722.907410 
	C486.438660,719.175598 493.325439,717.577759 500.851624,719.461975 
	C509.865051,721.718567 514.777100,727.615356 516.267212,736.411133 
	C518.113647,747.310364 516.828064,758.334717 517.007812,769.302429 
	C517.050476,771.908264 515.864197,773.345764 513.079468,773.250610 
	C510.918365,773.176758 508.752319,773.255249 506.588470,773.252625 
	C499.739716,773.244385 499.739716,773.241943 499.626099,765.917053 
z"/>
<path fill="#000000" opacity="1.000000" stroke="none" 
	d="
M645.835571,747.800293 
	C646.238892,722.042603 668.724976,714.593750 685.554626,720.326599 
	C696.864868,724.179321 704.002991,736.636597 702.430847,748.577209 
	C701.972961,752.054749 699.649170,751.879395 697.363708,751.857483 
	C688.375977,751.771301 679.389832,751.535278 670.402161,751.443542 
	C668.463745,751.423767 666.395325,750.965454 664.412354,752.413574 
	C665.280151,757.037781 668.704102,758.893921 672.753784,759.620850 
	C677.761780,760.519836 682.659302,760.089478 687.227417,757.354248 
	C690.334595,755.493835 694.506592,757.956848 697.553955,763.032532 
	C699.605408,766.449524 696.492737,767.612976 694.748169,768.871460 
	C680.288696,779.302612 648.447632,775.795044 645.835571,747.800293 
M685.162659,738.794922 
	C682.105957,733.601807 677.634094,731.248108 672.383545,732.486816 
	C667.959839,733.530457 664.569214,735.848511 664.057434,741.485962 
	C670.654846,741.485962 676.930237,741.507996 683.205322,741.467468 
	C684.467590,741.459351 685.525452,741.003601 685.162659,738.794922 
z"/>
<path fill="#000000" opacity="1.000000" stroke="none" 
	d="
M387.381287,750.955811 
	C387.624573,742.068176 387.874573,733.577698 387.805389,725.089844 
	C387.772369,721.041931 389.218536,719.499207 393.373444,719.615234 
	C407.174835,720.000793 405.179810,717.822327 405.300781,731.552185 
	C405.403473,743.209595 405.310333,754.868835 405.281158,766.527222 
	C405.264282,773.271179 405.244049,773.271484 398.285706,773.268066 
	C397.119873,773.267517 395.953613,773.281067 394.788300,773.255249 
	C391.666199,773.186096 387.963867,774.068176 388.455292,768.233032 
	C381.370483,773.636414 374.436646,775.367065 366.602325,773.441467 
	C357.649475,771.241028 351.998199,765.537537 350.666107,756.438477 
	C349.065857,745.507690 350.163818,734.494263 349.957092,723.519531 
	C349.906464,720.832214 351.223145,719.644836 353.957092,719.676208 
	C370.196655,719.862366 366.986450,717.720825 367.350372,732.092651 
	C367.485260,737.419189 367.217102,742.761353 367.494934,748.077454 
	C367.838287,754.647278 370.482422,758.008240 375.277771,758.719299 
	C381.045471,759.574585 384.569275,757.407959 387.381287,750.955811 
z"/>
<path fill="#000000" opacity="1.000000" stroke="none" 
	d="
M568.960693,772.806030 
	C567.320129,768.378113 564.994080,770.251831 562.565247,771.465759 
	C548.622864,778.434570 532.679504,772.063049 530.228271,757.773010 
	C528.121216,745.489929 528.774841,732.930786 529.590088,720.112915 
	C534.457886,719.339783 539.081604,719.683044 543.686340,719.797668 
	C546.300110,719.862732 546.353516,721.848633 546.361938,723.734131 
	C546.391785,730.392883 546.335938,737.052612 546.430786,743.710266 
	C546.463684,746.023438 546.660645,748.366089 547.095154,750.635437 
	C548.275330,756.798401 551.224670,759.208374 556.897949,758.908386 
	C562.582153,758.607849 566.484924,754.904785 566.706482,748.986206 
	C566.992615,741.337402 567.138916,733.665955 566.876892,726.020264 
	C566.703430,720.960327 568.543274,719.385010 573.551025,719.577393 
	C585.927246,720.052856 584.269226,718.090515 584.344360,730.608215 
	C584.419250,743.093140 584.243713,755.580322 584.404724,768.063599 
	C584.453979,771.883301 583.275085,773.647278 579.281494,773.314331 
	C575.974121,773.038574 572.639771,773.086670 568.960693,772.806030 
z"/>
<path fill="#000000" opacity="1.000000" stroke="none" 
	d="
M624.666626,718.793091 
	C628.682495,719.667847 632.264954,720.407410 635.786194,721.370850 
	C638.694153,722.166504 640.030884,723.891052 638.381714,726.948303 
	C637.910583,727.821655 637.533447,728.769653 637.268860,729.726440 
	C636.007874,734.287415 633.823547,735.871765 628.956848,733.631409 
	C624.541443,731.598755 619.520996,731.833862 614.683533,732.347046 
	C612.619507,732.565979 610.533875,733.281555 610.485474,735.778076 
	C610.439270,738.155457 612.563049,738.514221 614.363708,738.882141 
	C619.085754,739.847290 623.866089,740.566528 628.539185,741.723145 
	C636.830017,743.775146 640.951782,748.200745 641.334106,754.999634 
	C641.779968,762.928162 638.288757,768.479126 630.414917,771.585022 
	C618.773560,776.176941 607.237183,774.669800 595.843933,770.440979 
	C593.147217,769.440063 592.253357,767.661011 593.658875,764.966064 
	C594.041809,764.231628 594.292419,763.428162 594.604370,762.656677 
	C597.139099,756.388733 597.140686,756.384521 603.519531,758.783691 
	C608.929688,760.818542 614.521790,761.362305 620.223145,760.674133 
	C622.231506,760.431702 624.420654,759.856506 624.449463,757.300781 
	C624.474976,755.039307 622.458923,754.323669 620.668945,753.944946 
	C615.958801,752.948242 611.145081,752.387268 606.490601,751.192993 
	C598.228271,749.073181 594.217407,744.669617 593.712463,737.809753 
	C593.151917,730.194519 596.888062,724.474365 604.555054,721.049316 
	C610.877869,718.224731 617.547607,718.585449 624.666626,718.793091 
z"/>
<path fill="#000000" opacity="1.000000" stroke="none" 
	d="
M420.673279,709.039795 
	C425.468872,704.922180 430.823914,707.249512 435.913788,707.216187 
	C437.231445,707.207520 437.294617,708.865417 437.389008,710.036499 
	C437.549286,712.025208 437.882111,714.017273 437.838837,716.001343 
	C437.757294,719.741150 439.590698,720.737854 443.098267,720.736877 
	C450.863251,720.734619 452.583344,723.282166 450.788300,731.120117 
	C450.349792,733.034607 449.423004,734.043518 447.419006,734.033813 
	C445.256927,734.023315 443.093811,734.057800 440.932404,734.117310 
	C438.793854,734.176147 437.430084,735.143127 437.447479,737.442200 
	C437.488983,742.928772 437.233826,748.446167 437.735077,753.892517 
	C438.212128,759.075867 440.468933,760.427612 445.553284,759.663635 
	C449.981750,758.998230 451.653748,760.934082 453.124176,767.942383 
	C453.967072,771.959839 450.855804,772.348694 448.478180,773.064392 
	C432.347473,777.919922 420.617828,769.205627 420.577393,752.448120 
	C420.568970,748.953552 420.616211,745.458740 420.591492,741.964355 
	C420.562622,737.883911 420.838043,733.573242 414.651215,734.035645 
	C413.619019,734.112732 412.729462,733.446472 412.391510,732.385071 
	C411.563324,729.783875 412.049042,727.104919 411.989594,724.456787 
	C411.898254,720.385620 414.885315,720.755249 417.521088,720.540955 
	C419.425079,720.386047 419.942139,718.947754 420.085876,717.385193 
	C420.329071,714.741821 420.448547,712.087036 420.673279,709.039795 
z"/>
<path fill="#000000" opacity="1.000000" stroke="none" 
	d="
M711.644104,747.999878 
	C711.648560,739.669495 711.736694,731.837891 711.616150,724.009460 
	C711.567261,720.834534 712.725342,719.391357 715.977295,719.590210 
	C718.133240,719.721924 720.328430,719.752502 722.467224,719.499695 
	C725.992615,719.082886 728.904114,719.302551 728.687378,724.523987 
	C732.798645,721.625366 736.496765,719.496582 740.852722,718.846741 
	C744.445984,718.310791 746.811829,719.045044 746.376770,723.396606 
	C746.228455,724.880554 746.218079,726.411011 746.398987,727.889038 
	C746.943115,732.335388 745.709778,734.406616 740.588257,734.541199 
	C733.337891,734.731750 729.463440,739.217590 729.270142,746.532837 
	C729.076538,753.858276 729.118774,761.193359 729.226929,768.521790 
	C729.275574,771.815430 728.228088,773.398254 724.648926,773.339600 
	C708.967285,773.082703 712.005310,775.142395 711.663513,760.994812 
	C711.562927,756.832092 711.645264,752.664978 711.644104,747.999878 
z"/>
<path fill="#000000" opacity="1.000000" stroke="none" 
	d="
M472.651215,496.253906 
	C470.951385,500.773926 469.172699,504.896332 463.965790,505.128662 
	C460.129333,505.299896 456.743530,501.298370 455.566620,495.308350 
	C454.116882,487.929749 453.993530,480.476624 455.683258,473.104095 
	C456.118927,471.203400 456.891296,469.257965 457.978149,467.650238 
	C462.011444,461.684296 467.943512,462.099396 471.134857,468.594360 
	C474.551971,475.548767 474.542297,483.018433 473.838440,490.513947 
	C473.669006,492.318329 473.153900,494.090240 472.651215,496.253906 
M461.268127,481.666809 
	C461.344543,485.484650 461.294647,489.311340 461.562317,493.115723 
	C461.663086,494.547699 462.373474,496.135132 464.166870,496.346191 
	C465.579315,496.512451 466.352020,495.374023 466.497589,494.213715 
	C467.348602,487.431458 467.352448,480.629944 466.538055,473.841858 
	C466.416046,472.824829 465.739838,471.923859 464.618805,471.828552 
	C463.516174,471.734863 462.834045,472.510925 462.313599,473.428528 
	C461.006592,475.732971 461.384064,478.269623 461.268127,481.666809 
z"/>
</svg>